<?xml version="1.0" encoding="utf-8"?>
<!-- Generator: Adobe Illustrator 22.0.0, SVG Export Plug-In . SVG Version: 6.00 Build 0)  -->
<svg version="1.1" id="Layer_1" xmlns="http://www.w3.org/2000/svg" xmlns:xlink="http://www.w3.org/1999/xlink" x="0px" y="0px"
	 viewBox="0 0 960 960" style="enable-background:new 0 0 960 960;" xml:space="preserve">
<style type="text/css">
	.st0{fill:#A8CE39;}
	.st1{fill:#ADCF37;}
	.st2{fill:#9BC93D;}
	.st3{fill:#A3CD55;}
	.st4{fill:#ADD157;}
	.st5{fill:#97C83E;}
	.st6{fill:#8DC540;}
	.st7{fill:#93C73F;}
	.st8{fill:#A1CC3A;}
	.st9{fill:#89C441;}
	.st10{fill:#9ECB53;}
	.st11{fill:#9ACB53;}
	.st12{fill:#84C342;}
	.st13{fill:#96C952;}
	.st14{fill:#92C750;}
	.st15{fill:#93C851;}
	.st16{fill:#97CA52;}
	.st17{fill:#A6CD39;}
	.st18{fill:#B3D358;}
	.st19{fill:#B7D55A;}
	.st20{fill:#5F5D59;}
</style>
<g id="XMLID_221_">
	<path id="XMLID_533_" class="st0" d="M238.9,205.4c3.6-8.6,6.3-17.5,10-26.3c4.7-11.5,9-23.1,13.5-34.7c3.5-9.3,7.7-18.4,10.8-27.8
		c3.2-9.9,8.1-19.2,11.2-29c3-9.4,7.7-18.1,10.7-27.4c2.8-8.9,6.9-17.4,10.3-26.2c0.3,0,0.4,0,0.7,0c0.1,0.8,0.9,1.2,1.5,1.6
		c8.2,5.9,16.3,12,24.7,17.7c5.8,3.9,11.2,8.4,17,12.1c4.6,3,8.8,6.1,13,9.4c0.8,1.3-0.3,2.2-0.9,3.1c-4.6,5.7-9.9,10.8-14.8,15.9
		c-8.8,9.2-17.4,18.5-26,27.7c-10.4,10.9-20.6,22-31,32.9c-10.5,11.2-21.2,22.4-31.6,33.6c-4.3,4.6-8.9,8.9-12.8,13.8
		C243.2,203.8,241.8,206.4,238.9,205.4z"/>
	<path id="XMLID_532_" class="st1" d="M17.2,380.7c-3.8-7.6-5.9-15.7-9.2-23.3c-2.4-5.9-4.2-12.1-7.7-17.7c0-0.7,0-1.3,0-1.9
		c8.6,0,17,1.5,25.6,2c8.6,0.7,17.3,1.8,25.9,2.6c0.8,1.6-0.5,2.3-1.3,3.2c-3.9,5.1-8.8,9.3-13,14.2c-6.2,6.9-12.7,13.4-18.9,20.2
		C18.3,380.3,17.7,380.7,17.2,380.7z"/>
	<path id="XMLID_530_" class="st2" d="M164.7,352.6c4.7-0.1,9.4,0.9,14.2,0.8c2,0,3-0.7,3.8-2.6c4.3-11.3,8.8-22.7,13.1-34
		c0.4-0.9,0.8-1.8,1.2-2.6c13.8-15.4,28.2-30.1,42.1-45.2c6.5-7,13.1-13.9,19.4-20.9c6.3-6.9,12.7-13.9,19.3-20.5
		c5-4.9,9.4-10.1,14.2-15.1c4.7-4.9,10.3-9.3,14-15.2c0.8-1.3,2.2-2.4,3.4-3.4c0.9-0.7,2-1.3,2.7-2.3c3.8-5.3,8.8-9.6,13.1-14.3
		c5.1-5.5,10.4-11.1,15.5-16.5c5.4-5.7,10.9-11.5,16.2-17.4c4.7-5.4,9.7-10.4,14.7-15.7c7.8-8.4,15.5-16.9,23.6-25.1
		c0.9-0.9,1.8-2,3-2.4c7.6,6.3,16.3,11.1,23.9,17.4c2.3,1.9,5.3,3.2,7.8,5.1c0.7,0.5,1.8,0.8,1.9,2c-1.5,1.9-3.2,3.5-5.1,5
		c-2.3,1.9-4.5,3.8-5.9,6.3c-0.9,1.6-2.3,2.8-3.8,3.9c-2.4,1.9-4.6,4-6.2,6.6c-0.9,1.6-2.3,3-3.8,4c-1.1,0.8-2.2,1.5-2.8,2.6
		c-4.3,6.3-10.4,10.9-15.2,16.7c-3.6,4.2-7.7,8.2-11.6,12.3c-7.6,8-15.1,15.8-22.4,24c-3.5,3.9-7.2,7.7-10.7,11.3
		c-9,9.3-17.8,18.9-26.7,28.3c-12.8,13.6-25.8,27.3-38.5,41c-6.6,7.3-13.2,14.6-20.1,21.6c-4.9,4.9-9.3,10-13.9,14.8
		c-4.7,5.1-10.5,9.4-14.2,15.5c-0.8,1.3-2.3,2.3-3.5,3.4c-2.3,1.9-4.5,3.9-6.1,6.3c-1.2,1.9-2.7,3.6-4.6,5c-0.7,0.5-1.5,1.1-1.9,1.8
		c-4.2,5.9-9.7,10.8-14.7,16.1c-4.6,4.9-9,9.9-13.8,14.7c-7,7.2-13.9,14.3-20.5,21.9c-3.2,3.8-7,7-10.3,10.9
		c-1.5,1.9-1.5,3.2-0.1,4.9c-1.2,1.3-3,0.8-4.5,1.5c-17.4,3.4-35.2,4.2-52.8,6.6c-1.1,0.1-2.2,0.1-3.2,0c-1.3-0.1-2.6,0-3.9-0.3
		c-2.2-0.4-2.8-2-1.1-3.4c4.5-3.5,6.7-9,11.6-12.1c2.2-1.5,3-4.5,5-5.9c5.7-4.6,9.6-10.9,15.2-15.4c0.4-0.3,0.7-0.5,0.9-0.9
		c4.2-6.1,10-10.8,14.8-16.2c4.3-4.9,8.6-9.9,13.6-14.3c2.7-2.4,4.9-5.3,7.2-8C159.9,352.9,161.8,351.7,164.7,352.6z"/>
	<path id="XMLID_529_" class="st3" d="M133.6,681.1c-3.5-7.6-6.2-15.5-9.2-23.5c-2.4-6.3-5.7-12.4-7.7-18.9c-4-13-10.4-25-14.3-37.8
		c-1.2-4-3.6-7.6-4.6-11.7c-0.7-1.6,0.5-2.3,1.3-3.2c4.9-5.5,10.3-10.8,15.2-16.3c4.6-5.1,9.2-10,14-14.8
		c5.5-5.7,10.8-11.5,16.2-17.3c4.3-4.6,8.6-9.2,13-13.8c9-9.6,18.2-19.2,27.3-28.9c13.6-14.4,27.3-29.1,40.9-43.7
		c0.8-0.8,1.6-2.3,2.8-1.5c1.3,0.9,0.7,2.7,0.4,4.2c0,9.6,0,19.3,0,28.9c-0.1,33.7-0.3,67.3-0.3,101.1c0,1.6,0.3,3.2-0.3,4.9
		c-1.6-1.3-0.3-3.4-1.3-5c-1.9,1.6-3.8,3.2-5.4,5.1c-5,6.2-10.8,11.9-16.3,17.7c-4.5,4.6-8.6,9.4-13.1,14c-5,5.1-10.4,9.9-14.4,15.8
		c-1.1,1.5-2.4,2.7-3.9,3.9c-2.4,1.9-4.6,4-6.2,6.6c-0.7,1.2-1.8,2.3-2.8,3.1c-0.8,0.5-1.6,1.1-2.3,1.9c-4.7,6.1-10.8,10.9-15.7,17
		c-3.4,4.2-7.7,7.6-11.1,11.9C135.4,681.2,134.6,681.7,133.6,681.1z"/>
	<path id="XMLID_528_" class="st4" d="M229,453.8c0-0.5,0-1.1-0.1-1.6c-0.1-0.7,0.4-1.8-0.5-2c-1.1-0.4-1.5,0.7-2,1.3
		c-3.1,4.3-7.3,7.7-10.8,11.7c-8.4,9.3-17.1,17.9-25.6,27.1c-10.7,11.5-21.5,22.8-32.2,34.3c-6.7,7.2-13.6,14.2-20.1,21.6
		c-5.1,5.8-10.5,11.5-15.9,17c-4.2,4.5-7.7,9.6-12.5,13.4c-2,1.6-3.9,3.5-5.3,5.8c-0.9,1.6-2,3-3.8,3.9c-1.1,0.7-2.2,1.5-2.2,3
		c-3.2-4.3-3.6-9.9-5.7-14.7c-5.3-12.5-9.9-25.5-15.1-38.2c-2.4-5.9-4.2-12.1-6.6-18.2c-0.4-3,1.3-5,3.4-6.6
		c3.1-2.6,5.5-5.8,8.4-8.6c4.6-4.6,8.8-9.6,13.4-14.2c4.3-4.2,8.2-8.9,12.4-13.2c4-4.2,8-8.6,12-12.8c8.4-8.8,16.5-17.8,25-26.6
		c3.1-3.1,6.1-6.5,9.2-9.7c-1.1-0.8-2.4-0.9-2.8-2.3c1.1-1.3,3,0,3.9-1.3c1.2-1.3,3-1.3,4.5-1.6c19-3.5,38.2-6.2,57.1-10.9
		c2.6-0.7,5-1.3,7.6-1.8c2.6-0.4,3.8-1.6,3.6-4.3c-0.1-1.5-0.4-3.1,0.9-4.2c0.7,1.8,0.4,3.6,0.4,5.5c0,15.1,0,30.2,0,45.5
		C229.3,451.9,229,452.9,229,453.8z"/>
	<path id="XMLID_527_" class="st5" d="M229,400.1c0,1.2-0.1,2.4-0.1,3.5c0,5,0,5-4.7,6.1c-10.7,2.4-21.2,5.4-31.8,7
		c-12.3,1.9-24.6,4.9-37,6.3c-0.9-0.1-2,0.4-2.6-0.9c-0.4-1.1,0.4-1.8,1.1-2.6c3.8-5.1,8.5-9.2,12.7-13.9
		c5.9-6.6,12.1-13.2,18.4-19.7c6.5-6.9,12.7-14,19.4-20.6c4.7-4.6,9.2-9.6,13.5-14.3c4.6-5.3,10.7-9.2,14.2-15.4
		c0.3-0.4,0.5-0.7,0.9-0.9c6.1-4.2,10-10.4,15.1-15.5c5.3-5.4,10.3-11.1,15.4-16.6c5.4-5.8,10.8-11.7,16.3-17.4
		c11.5-11.9,22.9-23.9,34.1-36c6.3-6.9,12.8-13.8,19.3-20.6c10.1-10.7,20.2-21.5,30.2-32.1c6.1-6.5,12.3-12.8,18.1-19.4
		c3.8-4.5,7.8-8.8,11.9-12.7c5.1-4.9,8.8-11.1,14.6-15.1c1.9-1.3,2.4-3.9,4.2-5.3c6.7-5.7,11.5-13.2,18.5-18.5
		c0.4-0.3,0.9-0.4,1.5-0.7c1.8,1.6,3.8,2.8,5.8,4c5.9,3.2,11.1,7.6,16.3,11.7c0.9,1.5-0.3,2.4-0.9,3.5c-1.9,3-4.7,5-7,7.6
		c-7.3,8.1-15,15.9-22.4,24c-11.9,12.8-24,25.2-35.8,38.2c-3.4,3.6-6.7,7.3-10.3,10.9c-12.3,12.8-24.3,25.9-36.6,38.7
		c-9.9,10.3-19.6,20.6-29.1,31c-7.3,8-14.7,15.5-22,23.5c-7.6,8.2-15.1,16.7-23.2,24.4c-3.4,3.2-5.8,7.3-9.4,10.4
		c-2.2,0.9-4.6,0.3-6.7,0.8c-7,1.9-12.8,6.1-16.7,12c-3.4,5.1-4,11.3-4.5,17.4C229.2,388.5,229.2,394.3,229,400.1z"/>
	<path id="XMLID_526_" class="st6" d="M486.3,162.9c3.4,2.2,6.3,5,9.7,6.9c6.7,3.8,12.3,9.4,19.2,13.1c3.5,1.9,6.5,4.9,9.7,7.4
		c-8.1,5.9-13.8,14.2-20.9,21c-4.9,4.7-9.2,9.9-13.9,14.6c-5.5,5.5-10.7,11.3-16.1,17c-10.3,11.1-20.6,22-30.9,32.9
		c-13.4,14.3-26.7,28.5-40.1,42.6c-7.6,8.1-15,16.5-23.1,24.2c-2.3,2.3-4.2,5-5.9,7.7c-10.5,0-21.2,0.1-31.7,0.1
		c-9.6,0.5-19.3,0.1-29,0.3c-2.3,0-1.8-1.5-1.1-2.7c1.6-3.2,4.3-5.4,6.6-8c5.8-6.3,12.3-12.3,17.5-19.2c1.5-2,4-3.1,5.4-5.1
		c4.5-6.1,10.9-10.5,15.2-16.9c1.5-2.2,4.2-3.2,5.7-5.3c4.2-5.7,9.6-10.3,14.2-15.5c3.8-4.5,8-8.5,12-12.7
		c8-8.4,16.1-16.7,23.7-25.4c3.5-3.9,7.2-7.6,10.8-11.3c8.8-9.2,17.4-18.5,26.2-27.7c7.7-8,15.1-16.1,22.5-24.3
		C476.9,172.1,481.2,167.1,486.3,162.9z"/>
	<path id="XMLID_525_" class="st7" d="M486.3,162.9c-1.6,1.9-3,3.9-4.7,5.8c-5.9,6.2-12.3,12-17.7,18.6c-4,4.9-8.9,9-12.8,14
		c-3.1,4-7.3,7.3-10.8,11.2c-8.5,9.2-17.1,18.1-25.6,27.1c-7.2,7.7-13.9,15.7-21.3,23.1c-5.1,5.1-10.1,10.4-15,15.7
		c-5.3,5.7-10.5,11.3-15.8,17c-6.2,6.9-12.7,13.8-19.2,20.5c-6.7,7-13.2,14.2-19.8,21.3c-3.2,3.5-7,6.3-9.7,10.4
		c-0.5,0.8-1.6,1.8-1.1,2.8c0.5,0.9,1.8,0.4,2.7,0.4c9,0,17.9,0,27,0.1c-1.6,0.7-3.4,0.3-5.1,0.4c-26.6,0.1-53.2,0.5-79.7,1.6
		c0.9-3.1,3.8-5,5.8-7.3c7.3-8.5,15.4-16.2,22.8-24.7c7-8,14.8-15.2,22.1-23.1c9.9-10.5,19.6-21,29.6-31.6
		c6.9-7.2,13.6-14.6,20.5-21.7c9.9-10.3,19.4-20.6,29.1-31c7-7.6,14-15,21.2-22.5c10.5-11.2,21.2-22.3,31.6-33.6
		c4.2-4.6,9-8.6,12.7-13.8c0.7-0.9,1.3-1.9,1.6-3.1c0.7-0.1,1.2,0.4,1.8,0.7C466.1,148.3,476.2,155.6,486.3,162.9z"/>
	<path id="XMLID_524_" class="st8" d="M398.4,100.3c-3,4.2-6.9,7.6-10.3,11.2c-9.2,10.1-19,19.6-28.1,29.7
		c-5.7,6.5-11.6,12.8-17.5,18.9c-4.5,4.5-7.8,10.1-13.2,13.8c-1.5,0.9-2.3,2.8-3.6,4.2c-5.8,5.7-11.3,11.9-16.7,17.8
		c-4.6,5.1-10.5,9.3-14.2,15.5c-0.8,1.5-2.3,2.6-3.6,3.6c-1.2,0.9-2.6,1.8-3.4,3c-3.6,6.1-9.4,10.4-14.2,15.5
		c-4.5,4.9-8.5,10.3-13.8,14.4c-1.9,1.5-3.2,3.6-5,5.5c-8.1,8.6-16.2,17.3-24.4,25.8c-9.7,10.3-19.2,20.9-29.1,30.9
		c-1.3,1.3-1.9,3.8-4.3,4c3.6-11.2,8.6-22,12.5-33.2c3.1-8.8,7.2-17.1,10.1-25.9c3.5-10.4,8.4-20.4,11.9-30.8c2.2-6.5,5-12.7,7.3-19
		c2.6-0.4,4-2.4,5.7-4.2c4.6-4.9,9-10,13.6-14.8c9.2-9.7,18.6-19.3,27.8-29.1c6.5-7,13-13.9,19.6-20.8
		c10.4-10.8,20.5-21.6,30.6-32.7c6.5-7,13-13.9,19.4-20.9c2.3-2.4,5.1-4.7,6.3-8C374.6,82.6,386,92.2,398.4,100.3z"/>
	<path id="XMLID_523_" class="st9" d="M374.2,350.6c0.7-4.2,3.8-6.7,6.6-9.3c2.3-2,4.2-4.3,6.2-6.5c6.3-6.6,12.5-13.4,18.8-20
		c11.3-12,22.7-23.9,33.9-35.9c9.3-9.9,18.5-19.7,27.7-29.6c7.3-7.8,14-16.1,21.7-23.3c4.7-4.6,9-9.6,13.5-14.3
		c4.7-5,10.1-9.3,14-15.1c2-3,4.6-5.5,8.4-6.2c6.5,3.9,12.4,8.8,18.6,13.2c6.7,4.9,13.5,9.4,20.2,14.2c-8,7.7-15.2,15.9-22.8,23.9
		c-5.5,5.8-10.9,11.7-16.5,17.4c-6.2,6.3-12.4,12.7-18.2,19.3c-4.5,5-10,9-13.5,14.8c0,0,0,0.1-0.3,0.3c-5.9,4.6-9.6,11.3-15.7,15.9
		c-2.4,1.8-3.4,4.7-5.5,6.7c-3.8,3.4-7.3,7.2-10.5,11.1c-1.2,1.5-2.3,3.1-3,5c-0.3,0.5-0.8,0.9-1.5,1.2c-7.7,3.2-15,7.3-22.9,9.9
		c-4,1.3-7.8,3-11.7,4.7c-2.6,1.2-5.1,2.2-8,2.6C400.7,350.6,387.4,350.6,374.2,350.6z"/>
	<path id="XMLID_522_" class="st10" d="M133.6,681.1c2.6-0.9,3.5-3.6,5.4-5.3c5.7-4.9,9.4-11.5,15.5-15.9c2.2-1.6,3-4.5,4.9-5.9
		c5.8-4.5,9.2-11.3,15.4-15.5c2.7-1.8,3.6-5,5.9-7.3c6.7-6.5,12.8-13.6,19.3-20.2c5.8-6.1,11.3-12.3,17.3-18.2
		c3-2.8,5.5-5.9,8.4-8.9c0.5-0.5,1.1-1.6,2-1.2c0.8,0.4,0.4,1.3,0.5,2c0.1,1.3,0.1,2.8,0.1,4.2c0,9.4,0,18.9,0,28.3
		c0,79.3-0.1,158.7-0.1,237.9c0,1.1-0.1,2.2-0.1,3.2c-0.4,0.1-0.8,0-0.9-0.4c-1.1-4.3-0.4-8.6-0.5-13c0-45.3,0-90.7,0-136.1
		c0-1.3,0.7-3.4-0.5-3.9c-1.5-0.7-2.6,1.3-3.4,2.4c-4,5.4-9.2,9.9-13.6,14.8c-4.3,4.7-8.6,9.7-13.4,14.2c-4.5,4.3-8.5,9-12.7,13.5
		c-4.9,5.1-10,10-14.3,15.7c-0.4,0.5-1.1,1.1-1.9,1.2c-3.2-7.8-6.7-15.7-9.4-23.7c-2.6-7.6-6.3-14.7-8.9-22.3
		c-3.2-9.6-7.6-18.8-11.1-28.3C136.2,688.5,134.8,684.8,133.6,681.1z"/>
	<path id="XMLID_521_" class="st11" d="M619.7,257.6c4.6,2.7,8.4,6.3,13,8.9c6.2,3.6,11.2,8.6,17.4,12.1c4.6,2.6,8.6,6.2,12.8,9.3
		c3,2.3,6.5,3.9,9.2,6.6c-5.4,4.2-9.4,9.9-14.2,14.6c-5.3,5.4-10.3,11.1-15.5,16.6c-6.1,6.3-11.7,13.1-17.9,19.2
		c-0.5,0.5-1.1,1.1-1.6,1.6c-0.7,0.7-1.6,1.3-1.3,2.4c0.4,1.1,1.6,0.8,2.6,0.8c7.4,0,15,0,22.4,0c10.4,0,20.8,0,31.2,0
		c1.3,0,3.1-0.7,3.9,1.3c-24.4,0-48.8,0-73.3-0.1c-23.9-0.1-47.8-0.3-71.7-0.4c-0.8,0-1.5-0.1-2.3-0.1c0-3.6,2.6-5.8,4.7-8
		c6.5-6.1,12.1-13,18.4-19.2c4.7-4.7,9.2-9.7,13.8-14.6c7-7.4,14.2-14.7,20.9-22.3c3.4-3.8,6.9-7.2,10.3-10.8
		C608.1,269.6,613.4,263.2,619.7,257.6z"/>
	<path id="XMLID_519_" class="st10" d="M619.7,257.6c0,0.8-0.5,1.3-1.1,1.9c-7.8,8.2-15.7,16.5-23.5,24.7c-7.4,8-14.3,16.2-22,23.7
		c-4.7,4.6-8.4,10.1-13.8,14.2c-2.6,1.9-3.9,5.3-6.3,7.3c-5.3,4.2-8.5,10.4-14,14.3c-2.2,1.6-3.6,4.2-4.7,6.7
		c-7.8,0-15.7,0.1-23.3,0.1c-31.2,0-62.3,0-93.5,0c-1.2,0-2.4,0-3.5-0.1c8.8-4.2,17.8-7.3,26.7-10.9c5.7-2.4,11.6-4.6,16.9-7.8
		c8.5-3.6,16.6-8,25.2-11.3c6.6-2.6,12.7-6.2,19.2-8.9c11.2-4.6,22-10.3,32.9-15.5c11.7-5.7,23.3-11.6,34.8-17.5
		c7.8-4,15.4-8.8,23.6-12.1c4.5-1.9,8.5-4.9,12.8-7.2c3.1-1.6,6.2-3.6,9.7-4.3C617.1,255.9,618.4,256.8,619.7,257.6z"/>
	<path id="XMLID_517_" class="st12" d="M615.7,255.1c-8.4,4.3-16.2,9.4-24.8,13.2c-4.6,1.9-8.5,5.1-13,7.3
		c-8.1,3.9-16.1,8.5-24.2,12.4c-11.9,5.7-23.6,11.5-35.5,17.1c-11.2,5.3-22.4,10.5-33.7,15.7c-7.7,3.5-15.2,6.9-22.9,10.4
		c-1.2,0.5-2.7,1.1-4,0.8c-0.1-1.5,0.7-2.7,1.5-3.8c4.9-6.3,10.7-11.9,16.2-17.5c4.3-4.6,8.8-9.2,13-13.9
		c5.4-5.8,11.1-11.3,16.3-17.4c4-4.7,8.4-9.6,13.1-13.8c2.2-1.9,3.8-4.2,5.7-6.2c8.2-8.8,16.7-17.4,24.8-26.3
		c3.9-4.5,8.5-8.2,12-13.1c0.8-1.2,2.2-1.9,3.6-2c3.1,1.5,5.3,4,8,5.9c8.9,6.2,17.8,12.3,26.6,18.6
		C604.3,246.4,610.5,250.1,615.7,255.1z"/>
	<path id="XMLID_510_" class="st13" d="M681.6,351.3c-1.1-0.9-2.6-0.5-3.8-0.5c-18.1,0-36.2,0-54.4,0c-1.2,0-3,0.8-3.5-0.8
		c-0.5-1.2,0.7-2.4,1.6-3.4c5.1-5.1,9.9-10.7,14.7-15.9c6.6-7,13.1-14.3,20-21c4.5-4.5,7.8-10.1,13.2-13.6c0.8-0.5,1.5-1.3,2.6-1.3
		c2.7,2.6,5.5,4.7,9.2,6.2c2.3,0.9,4,3.1,6.2,4.6c6.7,4.9,14,9.3,20.4,14.7c2,1.8,4.9,2.3,6.6,4.5c-0.1,0.4-0.3,0.8-0.5,1.1
		c-5.8,5.1-10.3,11.6-16.2,16.7c-3,2.6-4.7,6.1-7.6,8.9C687.3,351.3,684.4,351.3,681.6,351.3z"/>
	<path id="XMLID_484_" class="st14" d="M227.5,844.5c0,4.6,0,9.2,0,13.6c0.8,1.5-0.1,3.1,0.5,4.6c0.3,20.5,0.7,40.9,0.9,61.4
		c0,0.7,0.3,1.6-0.8,1.9c-0.9-3.5-2.7-6.7-3.9-10.3c-4.2-11.2-8.8-22.3-13-33.5c-1.9-4.9-4.2-9.7-5.4-14.8c-0.5-1.2,0-2,0.8-2.8
		c5.5-6.2,11.3-12,16.9-18.2C224.7,845.3,225.8,843.9,227.5,844.5z"/>
	<path id="XMLID_483_" class="st15" d="M690.1,351.3c1.2-3.8,4.3-6.5,6.7-9.3c3-3.2,6.3-6.1,9-9.6c2.3-3,5.7-5.3,8.5-7.8
		c12,9,25,16.9,37.1,26.7C730.6,351.3,710.3,351.3,690.1,351.3z"/>
	<path id="XMLID_473_" class="st16" d="M228.1,862.7c-1.1-1.3-0.3-3-0.5-4.6c0.1,0,0.4,0,0.5,0C228.1,859.7,228.1,861.2,228.1,862.7
		z"/>
	<path id="XMLID_472_" class="st8" d="M164.7,352.6c-2.4-0.4-4.3,0.8-5.5,2.6c-4.9,6.5-10.9,11.9-16.3,17.9
		c-6.1,6.9-12.3,13.6-18.8,20c-5,4.9-8.8,10.9-14.6,15c-2.7,1.9-3.5,5.4-6.1,7.2c-5.3,3.6-7.8,9.9-13.1,13.4
		c-0.5,0.3-0.8,0.8-0.7,1.3c0.1,0.8,0.8,0.8,1.5,0.9c0.9,0,1.9,0,3,0c-0.4,1.8-1.9,1.3-3.1,1.6c-3.6,0.5-7.3,0.5-10.8,1.1
		c-8.5,0.5-17,1.9-25.6,1.6c-2.7,0-5.4-0.4-8,0.3c-1.5,0.3-3.1,0.3-4.6,0.3c-1.3-0.1-2.7,0.1-3.9-0.9c-1.1-1.8-1.9-3.5-2.2-5.5
		c-0.5-1.5,0.3-2.4,1.2-3.5c4.7-5.5,9.9-10.7,14.8-15.9c9.4-9.7,18.6-19.7,27.9-29.6c9.7-10.3,19.4-20.4,28.9-30.9
		c0.7-0.8,1.3-1.3,2.2-1.9c3.1,0.3,6.1,0.5,9.2,0.8c1.3,0.5,2.7-0.1,4,0.5c8.8,0.8,17.7,1.5,26.4,2.3
		C155.3,351.5,160.1,351.5,164.7,352.6z"/>
	<path id="XMLID_471_" class="st17" d="M111,347.5c-2.2,3.9-5.7,6.7-8.6,10.1c-5.7,6.5-11.9,12.3-17.7,18.5
		c-10.7,11.6-21.5,23.1-32.5,34.4c-5.1,5.3-10,10.8-15,16.2c-0.7,0.7-1.2,1.5-1.3,2.6c-2.4-3.9-3.4-8.2-5-12.4
		c-2.8-7.4-6.5-14.6-8.9-22.1c-1.5-4.7-3.6-9.2-5-13.9c3.8-5.8,9.2-10,13.6-15.1c6.3-7.3,13.2-14.2,19.8-21.3
		c0.5-0.5,1.1-1.1,1.1-1.9c9.7-0.5,19.3,1.3,29,2c9.3,0.7,18.8,1.8,28.1,2.7C109.5,347.1,110.3,347.4,111,347.5z"/>
	<path id="XMLID_470_" class="st17" d="M124.2,348.7c-1.3-0.1-2.8,0.5-4-0.5C121.5,348.2,122.8,348,124.2,348.7z"/>
	<path id="XMLID_469_" class="st16" d="M227.5,844.5c-1.1,0.5-2.2,1.1-3,2c-5.9,6.3-11.9,12.8-17.8,19.2c-0.4,0.4-0.5,1.2-0.8,1.8
		c-3-5.5-4.7-11.6-6.9-17.4c-2.7-7.2-6.2-14-8.6-21.3c-3.9-12.3-9.9-23.9-13.8-36.3c-1.6-5.1-4.2-10-6.2-15
		c-1.3-3.6-2.4-7.3-3.6-10.9c1.9-3.4,4.6-5.9,7.2-8.8c5.9-6.5,12-13.1,18.2-19.3c5.3-5.3,9.4-11.5,15.5-16.1
		c2.4-1.9,3.5-5.1,6.1-7.2c4-3.1,6.5-7.8,10.4-11.1c0.8-0.7,1.3-2,2.6-1.6c1.3,0.4,0.8,1.9,0.8,2.8
		C227.5,751.9,227.5,798.2,227.5,844.5z"/>
	<path id="XMLID_468_" class="st18" d="M80.3,432.8c3.4-1.1,6.9-0.7,10.4-1.3c1.1-0.1,2.4,0.4,3.4-0.7c8.8-0.3,17.5-1.9,26.3-2.8
		c6.9-0.7,13.9-1.2,20.8-2.4c3.4-0.5,6.7-1.5,10.3-1.3c1.3,0.7,2.6,1.5,3.9,0.8c0.8,0.9,0,1.3-0.4,1.8c-4,4.3-8.2,8.6-12.3,13
		c-8.2,8.9-16.5,17.8-24.7,26.6c-5.3,5.5-10.7,11.1-15.9,16.6c-5,5.3-9.4,11.1-14.7,15.8c-5,4.5-8.1,10.4-13.8,14.2
		c-1.6,1.1-2.4,3.2-3.1,5.3c-3-6.3-5.4-12.8-7.8-19.4c-2.7-7.8-6.2-15.4-9.3-23.2c-0.9-2.4-1.6-5.1-2.4-7.7c-0.4-3.1,1.6-5,3.5-6.7
		c7.2-6.6,13.6-13.8,19.8-21.2c1.1-1.3,2.7-2.2,3.9-3.4C79.5,435.6,80.7,434.5,80.3,432.8z"/>
	<path id="XMLID_467_" class="st19" d="M80.3,432.8c1.8,0.3,1.6,1.5,0.5,2.3c-5.7,4.3-8.9,10.7-14.7,14.8c-1.3,0.9-2.3,2.3-3.1,3.6
		c-1.6,2.6-3.6,4.6-5.9,6.3c-3,2.2-4.9,4.7-6.2,8.1c-3.2-8-7.2-15.7-9.4-23.9c-0.8-3-2.3-5.8-3.5-8.6c1.2-0.7,2.6,0.3,3.8-0.7
		c1.5,0,3.1,0,4.6,0c2.6-0.8,5.3,0.3,7.8-0.7C63.1,434.7,71.7,432.8,80.3,432.8z"/>
	<path id="XMLID_466_" class="st17" d="M42,434.8c-1.1,1.1-2.4,0.4-3.8,0.7c-0.1-0.1-0.1-0.4-0.1-0.7
		C39.4,434.8,40.7,434.8,42,434.8z"/>
	<g id="XMLID_274_">
		<path id="XMLID_275_" class="st20" d="M849.3,706.3c-0.8,0-1.8-0.4-2.2,0.7c0,11.1,0,22.1,0,33.2c0,12.5,0,25.2,0,37.8
			c0,16.5,0,33.1,0,49.5c0,9.7,0,19.6,0,29.3c0,9.4,0,18.9-0.1,28.2c0,2.3,1.1,2.3,2.8,2.3c10.1,0,20.4-0.1,30.5,0
			c2.4,0,3.1-0.7,3.1-3.1c-0.1-19.8,0-39.7,0-59.5c0-1.3,0.1-2.6,0.1-3.9c15.1,0,30.1,0,45.2,0c2.3,0,2.8-0.7,2.8-2.8
			c-0.1-9.6,0-19,0-28.6c0-4.2,0-4.2-4.2-4.2c-13.8,0-27.5,0-41.3,0c-1.3,0-2.8,0.5-2.8-1.9c0.1-13.5,0.1-27.1,0.3-40.6
			c25.1,0,50.3,0,75.4-0.1c0.3,0,0.4,0,0.7,0.1c0-12.1,0-24.3,0-36.4C923,706.3,886.2,706.3,849.3,706.3z"/>
		<path id="XMLID_340_" class="st20" d="M449.8,494.8c-36,0.1-72.1,0.1-108.1,0c-2,0-2.7,0.5-2.7,2.7c0.1,10.3,0.1,20.6,0,30.9
			c0,2,0.5,2.7,2.7,2.7c11.7-0.1,23.5,0,35.2,0c0,1.2,0.1,2.4,0.1,3.5c0,45.5,0,91.1,0,136.6c0,0.8,0,1.5,0,2.3c-0.1,1.5,0.4,2,2,2
			c10.7,0,21.3,0,31.8,0c1.5,0,2.2-0.4,2.2-2c-0.1-10.7-0.1-21.2-0.1-31.8c0-18.5,0.1-37,0.1-55.5c0-5.7-0.1-11.2-0.1-16.9
			c0-11.9,0.1-23.6,0.1-35.5c0-2.4,0.7-3.1,3.1-3c11.3,0.1,22.5,0,33.9,0.1c2.2,0,3-0.3,3-2.7c-0.1-10.3-0.1-20.4,0-30.6
			C452.6,495.7,452.1,494.8,449.8,494.8z"/>
		<path id="XMLID_341_" class="st20" d="M813,706.4c-34.9,0.1-69.8,0-104.7,0c-0.5,0-1.1,0-1.6,0c-1.3-0.1-1.9,0.4-1.9,1.9
			c0.1,11.5,0.1,22.9,0.3,34.4c-0.3,12.5-0.3,25.2,0,37.8c-0.3,9.6-0.3,19.2,0,28.6c-0.3,10.3-0.3,20.4,0,30.6
			c-0.3,9.3-0.3,18.6,0,28.1c0,5.8-0.1,11.7-0.1,17.5c0,1.6,0.7,1.9,2.2,1.9c10.4,0,20.8,0,31.2,0c1.5,0,2.2-0.3,2.2-1.9
			c-0.1-6.1-0.1-12.1-0.1-18.2c0-9.3,0-18.6,0-28.1c0-5,0.3-10,0.1-15c-0.1-2.8,0.8-3.4,3.4-3.4c14.2,0.1,28.3,0,42.6,0.1
			c2.4,0,3.1-0.7,3-3.1c-0.3-3.5-0.1-7.2-0.3-10.7c0-6.3,0-12.8,0.1-19.2c0.1-2.3-0.7-2.8-3-2.8c-13.2,0.1-26.4,0-39.5,0
			c-6.2,0-6.2,0-6.6-6.1c0-11.1,0.1-22.1,0.1-33.2c0-2.8,0.8-3.4,3.4-3.4c23.3,0.1,46.7,0,70,0.1c2.8,0,3.5-0.9,2.8-3.4
			c0-9.9,0-19.7,0.3-29.6C816.8,707.1,815.9,706.4,813,706.4z"/>
		<path id="XMLID_344_" class="st20" d="M630.3,577.4c0,0.3-0.1,0.7-0.1,0.9c0,31.6,0,63.1,0,94.6c0,3,1.3,2.7,3.4,2.7
			c33.9,0,67.9,0,101.7,0c0.9,0,2.2,0.7,2.8-0.5c0-10.7,0-21.3,0.3-31.8c0-2.8-0.8-3.4-3.4-3.4c-22,0.1-44.1,0-66.1,0.1
			c-2.4,0-3-0.7-3-3.1c0.1-8.9,0.1-17.8,0-26.7c0-2.4,0.5-3.1,3-3c15.2,0.1,30.4,0,45.6,0.1c3,0,3.5-0.8,3.5-3.6
			c-0.1-9.7-0.1-19.6,0-29.3c0-2.7-0.4-3.6-3.5-3.6c-16.2,0.1-32.4,0-48.6,0c0-13.2,0-26.4,0-39.7c0.1,0,0.4,0,0.5-0.1
			c23.2,0,46.4,0,69.6,0.1c1.9,0,2-0.8,2-2.3c0-10.4-0.1-20.8,0-31.3c0-2.2-0.5-2.7-2.7-2.7c-12,0-24,0-36,0l0,0
			c-22.1,0-44.3,0-66.5,0c-2.6,0-3.1,0.8-3,3.1c0.1,5.1,0,10.3,0,15.2C630.2,534.6,630.2,556,630.3,577.4z M630.9,623.6
			C630.9,623.7,630.9,623.7,630.9,623.6L630.9,623.6L630.9,623.6z M630.9,576.6C630.9,576.7,630.9,576.7,630.9,576.6L630.9,576.6
			L630.9,576.6z M701.6,495.4c-0.1,0.1-0.4,0.4-0.5,0.5c0-0.1,0-0.3,0-0.4c0,0,0,0-0.1-0.1C701.2,495.4,701.3,495.4,701.6,495.4z"/>
		<path id="XMLID_347_" class="st20" d="M485,604.7c0,22.7,0,45.3,0,68c0,1.8-0.1,3.1,2.4,3c10.7-0.1,21.3-0.1,31.8,0
			c1.5,0,2.2-0.3,2-1.9c-0.1-11.5-0.1-22.9-0.1-34.5c0-9.7,0.1-19.6,0-29.3c0-2,0.4-2.7,2.7-2.7c11.3,0.1,22.5,0.1,33.9,0.1
			c0,1.3,0.1,2.6,0.1,3.9c0,20.5,0,41,0,61.5c0,2.2,0.4,3,2.8,3c10.3-0.1,20.4-0.1,30.6-0.1c1.8,0,2.4-0.3,2.4-2.3
			c-0.1-10.9-0.1-21.9-0.1-32.9c0-25,0-49.9,0-74.9c0-22.8,0-45.7,0.1-68.5c0-2-0.9-2.2-2.6-2.2c-10,0-20,0-30,0
			c-0.9,0-1.9-0.3-2.8,0.4l0.1,0.1l0,0l-0.1-0.1c-1.1,0.8-0.5,2-0.5,3c0,6.9,0,13.9,0,20.8c0,16.3,0,32.8,0,49.1
			c0,0.5,0.1,1.3,0.1,1.9c0,0,0,0.1-0.1,0.1c-0.1,0.3-0.1,0.4-0.4,0.5l0,0c-0.3,0.1-0.7,0.3-1.3,0.3c-11.6-0.1-23.2-0.1-34.8-0.1
			c0-24.4,0-48.7,0-73.1c0-2.3-0.5-3-2.8-2.8c-7.8,0.1-15.7,0-23.3,0.1c-3.2,0-6.5-0.5-9.6,0.4c-1.1,0.9-0.5,2.2-0.5,3.4
			C485,534,485,569.3,485,604.7z"/>
		<path id="XMLID_348_" class="st20" d="M449.1,838c0-1.8-0.5-2.2-2.2-2.2c-4,0.1-8.2,0-12.3,0c-7.2,0.1-14.3-0.4-21.3,0.3
			c-0.9,4.3-0.1,8.8-0.4,13.2c0,0.7,0,1.2-0.3,1.6c0,0,0,0.1-0.1,0.1c-0.3,0.4-0.7,0.7-1.6,0.7c-11.3-0.1-22.7-0.1-34.1-0.3
			c0-1.1-0.1-2.2-0.1-3.1c0-7.2,0-14.3,0-21.5c0-12.5,0-25.2,0-37.8c0-12.8,0-25.6,0-38.5c0-1.9,0.3-3.6,0.1-5.5
			c-0.1-1.9,0.5-2.3,2.4-2.3c10.5,0.1,21,0.1,31.6,0c1.8,0,2.2,0.5,2.2,2.2c-0.1,3.6,0.1,7.4-0.1,11.1c-0.1,2,0.5,2.6,2.6,2.6
			c10.4-0.1,20.8-0.1,31.2,0c2.3,0,2.6-0.8,2.6-2.7c-0.1-10.4,0-20.8,0-31.2c0-1.3,0.3-2.8-0.7-4c-2.7-8.4-8.4-14-17.7-14
			c-23.9,0-47.9-0.1-71.8,0c-10.4,0.1-17.9,7.6-18.2,17.1c-0.1,0.5-0.3,1.1-0.3,1.6c0,47.9,0,95.9,0,143.8c0,9.3,7.6,18.2,18.4,18.2
			c24,0,47.9,0.1,71.9-0.1c9-0.1,13.9-3.5,17.1-12c2.2-5.7,0.8-11.7,0.9-17.7C449,850.9,449,844.5,449.1,838z"/>
		<path id="XMLID_351_" class="st20" d="M597.7,852.1c-1.1-0.9-2.3-0.4-3.4-0.4c-24.3-0.1-48.6-0.1-72.9-0.1
			c0-7.8-0.1-15.5-0.1-23.3c0-11.3,0-22.5,0-33.9c0-12.4,0-24.7,0-37.1c0-7.6,0-15.2,0-22.8c0-9.2,0-18.2,0-27.4
			c-0.8-1.2-1.9-0.5-3-0.5c-9.9,0-19.7,0.1-29.7-0.1c-2.8,0-3.9,0.5-3.8,3.6c0.1,23.9,0.1,47.8,0.1,71.6c0,34.1,0,68.1,0,102.3
			c0,2.6,0.4,3.5,3.2,3.5c35.6-0.1,71.2-0.1,106.9,0c2.6,0,3.1-0.8,3-3.1c-0.1-9.9,0-19.7,0-29.7C597.9,853.8,598.2,853,597.7,852.1
			z M547.3,878.3C547.3,878.3,547.5,878.3,547.3,878.3C547.5,878.3,547.5,878.3,547.3,878.3C547.3,878.3,547.5,878.3,547.3,878.3z"
			/>
		<path id="XMLID_352_" class="st20" d="M663,706.4c-9.7,0.1-19.6,0.1-29.3,0c-2.8,0-3.6,0.7-3.6,3.5c0.1,29,0.1,57.9,0.1,86.9l0,0
			c0,29.1,0,58.2,0,87.3c0,2.4,0.4,3.4,3.1,3.4c10-0.1,20-0.1,30,0c2.2,0,2.7-0.5,2.7-2.7c0-58.4,0-117,0-175.4
			C665.9,706.8,665.1,706.4,663,706.4z"/>
	</g>
	<path id="XMLID_456_" class="st17" d="M54.3,434.1c-2.6,1.3-5.3,0.4-7.8,0.7C49,433.4,51.7,434.4,54.3,434.1z"/>
	<path id="XMLID_641_" class="st0" d="M238.9,205.4c3.6-8.6,6.3-17.5,10-26.3c4.7-11.5,9-23.1,13.5-34.7c3.5-9.3,7.7-18.4,10.8-27.8
		c3.2-9.9,8.1-19.2,11.2-29c3-9.4,7.7-18.1,10.7-27.4c2.8-8.9,6.9-17.4,10.3-26.2c0.3,0,0.4,0,0.7,0c0.1,0.8,0.9,1.2,1.5,1.6
		c8.2,5.9,16.3,12,24.7,17.7c5.8,3.9,11.2,8.4,17,12.1c4.6,3,8.8,6.1,13,9.4c0.8,1.3-0.3,2.2-0.9,3.1c-4.6,5.7-9.9,10.8-14.8,15.9
		c-8.8,9.2-17.4,18.5-26,27.7c-10.4,10.9-20.6,22-31,32.9c-10.5,11.2-21.2,22.4-31.6,33.6c-4.3,4.6-8.9,8.9-12.8,13.8
		C243.2,203.8,241.8,206.4,238.9,205.4z"/>
	<path id="XMLID_640_" class="st1" d="M17.2,380.7c-3.8-7.6-5.9-15.7-9.2-23.3c-2.4-5.9-4.2-12.1-7.7-17.7c0-0.7,0-1.3,0-1.9
		c8.6,0,17,1.5,25.6,2c8.6,0.7,17.3,1.8,25.9,2.6c0.8,1.6-0.5,2.3-1.3,3.2c-3.9,5.1-8.8,9.3-13,14.2c-6.2,6.9-12.7,13.4-18.9,20.2
		C18.3,380.3,17.7,380.7,17.2,380.7z"/>
	<path id="XMLID_639_" class="st2" d="M164.7,352.6c4.7-0.1,9.4,0.9,14.2,0.8c2,0,3-0.7,3.8-2.6c4.3-11.3,8.8-22.7,13.1-34
		c0.4-0.9,0.8-1.8,1.2-2.6c13.8-15.4,28.2-30.1,42.1-45.2c6.5-7,13.1-13.9,19.4-20.9c6.3-6.9,12.7-13.9,19.3-20.5
		c5-4.9,9.4-10.1,14.2-15.1c4.7-4.9,10.3-9.3,14-15.2c0.8-1.3,2.2-2.4,3.4-3.4c0.9-0.7,2-1.3,2.7-2.3c3.8-5.3,8.8-9.6,13.1-14.3
		c5.1-5.5,10.4-11.1,15.5-16.5c5.4-5.7,10.9-11.5,16.2-17.4c4.7-5.4,9.7-10.4,14.7-15.7c7.8-8.4,15.5-16.9,23.6-25.1
		c0.9-0.9,1.8-2,3-2.4c7.6,6.3,16.3,11.1,23.9,17.4c2.3,1.9,5.3,3.2,7.8,5.1c0.7,0.5,1.8,0.8,1.9,2c-1.5,1.9-3.2,3.5-5.1,5
		c-2.3,1.9-4.5,3.8-5.9,6.3c-0.9,1.6-2.3,2.8-3.8,3.9c-2.4,1.9-4.6,4-6.2,6.6c-0.9,1.6-2.3,3-3.8,4c-1.1,0.8-2.2,1.5-2.8,2.6
		c-4.3,6.3-10.4,10.9-15.2,16.7c-3.6,4.2-7.7,8.2-11.6,12.3c-7.6,8-15.1,15.8-22.4,24c-3.5,3.9-7.2,7.7-10.7,11.3
		c-9,9.3-17.8,18.9-26.7,28.3c-12.8,13.6-25.8,27.3-38.5,41c-6.6,7.3-13.2,14.6-20.1,21.6c-4.9,4.9-9.3,10-13.9,14.8
		c-4.7,5.1-10.5,9.4-14.2,15.5c-0.8,1.3-2.3,2.3-3.5,3.4c-2.3,1.9-4.5,3.9-6.1,6.3c-1.2,1.9-2.7,3.6-4.6,5c-0.7,0.5-1.5,1.1-1.9,1.8
		c-4.2,5.9-9.7,10.8-14.7,16.1c-4.6,4.9-9,9.9-13.8,14.7c-7,7.2-13.9,14.3-20.5,21.9c-3.2,3.8-7,7-10.3,10.9
		c-1.5,1.9-1.5,3.2-0.1,4.9c-1.2,1.3-3,0.8-4.5,1.5c-17.4,3.4-35.2,4.2-52.8,6.6c-1.1,0.1-2.2,0.1-3.2,0c-1.3-0.1-2.6,0-3.9-0.3
		c-2.2-0.4-2.8-2-1.1-3.4c4.5-3.5,6.7-9,11.6-12.1c2.2-1.5,3-4.5,5-5.9c5.7-4.6,9.6-10.9,15.2-15.4c0.4-0.3,0.7-0.5,0.9-0.9
		c4.2-6.1,10-10.8,14.8-16.2c4.3-4.9,8.6-9.9,13.6-14.3c2.7-2.4,4.9-5.3,7.2-8C159.9,352.9,161.8,351.7,164.7,352.6z"/>
	<path id="XMLID_638_" class="st3" d="M133.6,681.1c-3.5-7.6-6.2-15.5-9.2-23.5c-2.4-6.3-5.7-12.4-7.7-18.9c-4-13-10.4-25-14.3-37.8
		c-1.2-4-3.6-7.6-4.6-11.7c-0.7-1.6,0.5-2.3,1.3-3.2c4.9-5.5,10.3-10.8,15.2-16.3c4.6-5.1,9.2-10,14-14.8
		c5.5-5.7,10.8-11.5,16.2-17.3c4.3-4.6,8.6-9.2,13-13.8c9-9.6,18.2-19.2,27.3-28.9c13.6-14.4,27.3-29.1,40.9-43.7
		c0.8-0.8,1.6-2.3,2.8-1.5c1.3,0.9,0.7,2.7,0.4,4.2c0,9.6,0,19.3,0,28.9c-0.1,33.7-0.3,67.3-0.3,101.1c0,1.6,0.3,3.2-0.3,4.9
		c-1.6-1.3-0.3-3.4-1.3-5c-1.9,1.6-3.8,3.2-5.4,5.1c-5,6.2-10.8,11.9-16.3,17.7c-4.5,4.6-8.6,9.4-13.1,14c-5,5.1-10.4,9.9-14.4,15.8
		c-1.1,1.5-2.4,2.7-3.9,3.9c-2.4,1.9-4.6,4-6.2,6.6c-0.7,1.2-1.8,2.3-2.8,3.1c-0.8,0.5-1.6,1.1-2.3,1.9c-4.7,6.1-10.8,10.9-15.7,17
		c-3.4,4.2-7.7,7.6-11.1,11.9C135.4,681.2,134.6,681.7,133.6,681.1z"/>
	<path id="XMLID_636_" class="st4" d="M229,453.8c0-0.5,0-1.1-0.1-1.6c-0.1-0.7,0.4-1.8-0.5-2c-1.1-0.4-1.5,0.7-2,1.3
		c-3.1,4.3-7.3,7.7-10.8,11.7c-8.4,9.3-17.1,17.9-25.6,27.1c-10.7,11.5-21.5,22.8-32.2,34.3c-6.7,7.2-13.6,14.2-20.1,21.6
		c-5.1,5.8-10.5,11.5-15.9,17c-4.2,4.5-7.7,9.6-12.5,13.4c-2,1.6-3.9,3.5-5.3,5.8c-0.9,1.6-2,3-3.8,3.9c-1.1,0.7-2.2,1.5-2.2,3
		c-3.2-4.3-3.6-9.9-5.7-14.7c-5.3-12.5-9.9-25.5-15.1-38.2c-2.4-5.9-4.2-12.1-6.6-18.2c-0.4-3,1.3-5,3.4-6.6
		c3.1-2.6,5.5-5.8,8.4-8.6c4.6-4.6,8.8-9.6,13.4-14.2c4.3-4.2,8.2-8.9,12.4-13.2c4-4.2,8-8.6,12-12.8c8.4-8.8,16.5-17.8,25-26.6
		c3.1-3.1,6.1-6.5,9.2-9.7c-1.1-0.8-2.4-0.9-2.8-2.3c1.1-1.3,3,0,3.9-1.3c1.2-1.3,3-1.3,4.5-1.6c19-3.5,38.2-6.2,57.1-10.9
		c2.6-0.7,5-1.3,7.6-1.8c2.6-0.4,3.8-1.6,3.6-4.3c-0.1-1.5-0.4-3.1,0.9-4.2c0.7,1.8,0.4,3.6,0.4,5.5c0,15.1,0,30.2,0,45.5
		C229.3,451.9,229,452.9,229,453.8z"/>
	<path id="XMLID_635_" class="st5" d="M229,400.1c0,1.2-0.1,2.4-0.1,3.5c0,5,0,5-4.7,6.1c-10.7,2.4-21.2,5.4-31.8,7
		c-12.3,1.9-24.6,4.9-37,6.3c-0.9-0.1-2,0.4-2.6-0.9c-0.4-1.1,0.4-1.8,1.1-2.6c3.8-5.1,8.5-9.2,12.7-13.9
		c5.9-6.6,12.1-13.2,18.4-19.7c6.5-6.9,12.7-14,19.4-20.6c4.7-4.6,9.2-9.6,13.5-14.3c4.6-5.3,10.7-9.2,14.2-15.4
		c0.3-0.4,0.5-0.7,0.9-0.9c6.1-4.2,10-10.4,15.1-15.5c5.3-5.4,10.3-11.1,15.4-16.6c5.4-5.8,10.8-11.7,16.3-17.4
		c11.5-11.9,22.9-23.9,34.1-36c6.3-6.9,12.8-13.8,19.3-20.6c10.1-10.7,20.2-21.5,30.2-32.1c6.1-6.5,12.3-12.8,18.1-19.4
		c3.8-4.5,7.8-8.8,11.9-12.7c5.1-4.9,8.8-11.1,14.6-15.1c1.9-1.3,2.4-3.9,4.2-5.3c6.7-5.7,11.5-13.2,18.5-18.5
		c0.4-0.3,0.9-0.4,1.5-0.7c1.8,1.6,3.8,2.8,5.8,4c5.9,3.2,11.1,7.6,16.3,11.7c0.9,1.5-0.3,2.4-0.9,3.5c-1.9,3-4.7,5-7,7.6
		c-7.3,8.1-15,15.9-22.4,24c-11.9,12.8-24,25.2-35.8,38.2c-3.4,3.6-6.7,7.3-10.3,10.9c-12.3,12.8-24.3,25.9-36.6,38.7
		c-9.9,10.3-19.6,20.6-29.1,31c-7.3,8-14.7,15.5-22,23.5c-7.6,8.2-15.1,16.7-23.2,24.4c-3.4,3.2-5.8,7.3-9.4,10.4
		c-2.2,0.9-4.6,0.3-6.7,0.8c-7,1.9-12.8,6.1-16.7,12c-3.4,5.1-4,11.3-4.5,17.4C229.2,388.5,229.2,394.3,229,400.1z"/>
	<path id="XMLID_634_" class="st6" d="M486.3,162.9c3.4,2.2,6.3,5,9.7,6.9c6.7,3.8,12.3,9.4,19.2,13.1c3.5,1.9,6.5,4.9,9.7,7.4
		c-8.1,5.9-13.8,14.2-20.9,21c-4.9,4.7-9.2,9.9-13.9,14.6c-5.5,5.5-10.7,11.3-16.1,17c-10.3,11.1-20.6,22-30.9,32.9
		c-13.4,14.3-26.7,28.5-40.1,42.6c-7.6,8.1-15,16.5-23.1,24.2c-2.3,2.3-4.2,5-5.9,7.7c-10.5,0-21.2,0.1-31.7,0.1
		c-9.6,0.5-19.3,0.1-29,0.3c-2.3,0-1.8-1.5-1.1-2.7c1.6-3.2,4.3-5.4,6.6-8c5.8-6.3,12.3-12.3,17.5-19.2c1.5-2,4-3.1,5.4-5.1
		c4.5-6.1,10.9-10.5,15.2-16.9c1.5-2.2,4.2-3.2,5.7-5.3c4.2-5.7,9.6-10.3,14.2-15.5c3.8-4.5,8-8.5,12-12.7
		c8-8.4,16.1-16.7,23.7-25.4c3.5-3.9,7.2-7.6,10.8-11.3c8.8-9.2,17.4-18.5,26.2-27.7c7.7-8,15.1-16.1,22.5-24.3
		C476.9,172.1,481.2,167.1,486.3,162.9z"/>
	<path id="XMLID_633_" class="st7" d="M486.3,162.9c-1.6,1.9-3,3.9-4.7,5.8c-5.9,6.2-12.3,12-17.7,18.6c-4,4.9-8.9,9-12.8,14
		c-3.1,4-7.3,7.3-10.8,11.2c-8.5,9.2-17.1,18.1-25.6,27.1c-7.2,7.7-13.9,15.7-21.3,23.1c-5.1,5.1-10.1,10.4-15,15.7
		c-5.3,5.7-10.5,11.3-15.8,17c-6.2,6.9-12.7,13.8-19.2,20.5c-6.7,7-13.2,14.2-19.8,21.3c-3.2,3.5-7,6.3-9.7,10.4
		c-0.5,0.8-1.6,1.8-1.1,2.8c0.5,0.9,1.8,0.4,2.7,0.4c9,0,17.9,0,27,0.1c-1.6,0.7-3.4,0.3-5.1,0.4c-26.6,0.1-53.2,0.5-79.7,1.6
		c0.9-3.1,3.8-5,5.8-7.3c7.3-8.5,15.4-16.2,22.8-24.7c7-8,14.8-15.2,22.1-23.1c9.9-10.5,19.6-21,29.6-31.6
		c6.9-7.2,13.6-14.6,20.5-21.7c9.9-10.3,19.4-20.6,29.1-31c7-7.6,14-15,21.2-22.5c10.5-11.2,21.2-22.3,31.6-33.6
		c4.2-4.6,9-8.6,12.7-13.8c0.7-0.9,1.3-1.9,1.6-3.1c0.7-0.1,1.2,0.4,1.8,0.7C466.1,148.3,476.2,155.6,486.3,162.9z"/>
	<path id="XMLID_632_" class="st8" d="M398.4,100.3c-3,4.2-6.9,7.6-10.3,11.2c-9.2,10.1-19,19.6-28.1,29.7
		c-5.7,6.5-11.6,12.8-17.5,18.9c-4.5,4.5-7.8,10.1-13.2,13.8c-1.5,0.9-2.3,2.8-3.6,4.2c-5.8,5.7-11.3,11.9-16.7,17.8
		c-4.6,5.1-10.5,9.3-14.2,15.5c-0.8,1.5-2.3,2.6-3.6,3.6c-1.2,0.9-2.6,1.8-3.4,3c-3.6,6.1-9.4,10.4-14.2,15.5
		c-4.5,4.9-8.5,10.3-13.8,14.4c-1.9,1.5-3.2,3.6-5,5.5c-8.1,8.6-16.2,17.3-24.4,25.8c-9.7,10.3-19.2,20.9-29.1,30.9
		c-1.3,1.3-1.9,3.8-4.3,4c3.6-11.2,8.6-22,12.5-33.2c3.1-8.8,7.2-17.1,10.1-25.9c3.5-10.4,8.4-20.4,11.9-30.8c2.2-6.5,5-12.7,7.3-19
		c2.6-0.4,4-2.4,5.7-4.2c4.6-4.9,9-10,13.6-14.8c9.2-9.7,18.6-19.3,27.8-29.1c6.5-7,13-13.9,19.6-20.8
		c10.4-10.8,20.5-21.6,30.6-32.7c6.5-7,13-13.9,19.4-20.9c2.3-2.4,5.1-4.7,6.3-8C374.6,82.6,386,92.2,398.4,100.3z"/>
	<path id="XMLID_631_" class="st9" d="M374.2,350.6c0.7-4.2,3.8-6.7,6.6-9.3c2.3-2,4.2-4.3,6.2-6.5c6.3-6.6,12.5-13.4,18.8-20
		c11.3-12,22.7-23.9,33.9-35.9c9.3-9.9,18.5-19.7,27.7-29.6c7.3-7.8,14-16.1,21.7-23.3c4.7-4.6,9-9.6,13.5-14.3
		c4.7-5,10.1-9.3,14-15.1c2-3,4.6-5.5,8.4-6.2c6.5,3.9,12.4,8.8,18.6,13.2c6.7,4.9,13.5,9.4,20.2,14.2c-8,7.7-15.2,15.9-22.8,23.9
		c-5.5,5.8-10.9,11.7-16.5,17.4c-6.2,6.3-12.4,12.7-18.2,19.3c-4.5,5-10,9-13.5,14.8c0,0,0,0.1-0.3,0.3c-5.9,4.6-9.6,11.3-15.7,15.9
		c-2.4,1.8-3.4,4.7-5.5,6.7c-3.8,3.4-7.3,7.2-10.5,11.1c-1.2,1.5-2.3,3.1-3,5c-0.3,0.5-0.8,0.9-1.5,1.2c-7.7,3.2-15,7.3-22.9,9.9
		c-4,1.3-7.8,3-11.7,4.7c-2.6,1.2-5.1,2.2-8,2.6C400.7,350.6,387.4,350.6,374.2,350.6z"/>
	<path id="XMLID_630_" class="st10" d="M133.6,681.1c2.6-0.9,3.5-3.6,5.4-5.3c5.7-4.9,9.4-11.5,15.5-15.9c2.2-1.6,3-4.5,4.9-5.9
		c5.8-4.5,9.2-11.3,15.4-15.5c2.7-1.8,3.6-5,5.9-7.3c6.7-6.5,12.8-13.6,19.3-20.2c5.8-6.1,11.3-12.3,17.3-18.2
		c3-2.8,5.5-5.9,8.4-8.9c0.5-0.5,1.1-1.6,2-1.2c0.8,0.4,0.4,1.3,0.5,2c0.1,1.3,0.1,2.8,0.1,4.2c0,9.4,0,18.9,0,28.3
		c0,79.3-0.1,158.7-0.1,237.9c0,1.1-0.1,2.2-0.1,3.2c-0.4,0.1-0.8,0-0.9-0.4c-1.1-4.3-0.4-8.6-0.5-13c0-45.3,0-90.7,0-136.1
		c0-1.3,0.7-3.4-0.5-3.9c-1.5-0.7-2.6,1.3-3.4,2.4c-4,5.4-9.2,9.9-13.6,14.8c-4.3,4.7-8.6,9.7-13.4,14.2c-4.5,4.3-8.5,9-12.7,13.5
		c-4.9,5.1-10,10-14.3,15.7c-0.4,0.5-1.1,1.1-1.9,1.2c-3.2-7.8-6.7-15.7-9.4-23.7c-2.6-7.6-6.3-14.7-8.9-22.3
		c-3.2-9.6-7.6-18.8-11.1-28.3C136.2,688.5,134.8,684.8,133.6,681.1z"/>
	<path id="XMLID_629_" class="st11" d="M619.7,257.6c4.6,2.7,8.4,6.3,13,8.9c6.2,3.6,11.2,8.6,17.4,12.1c4.6,2.6,8.6,6.2,12.8,9.3
		c3,2.3,6.5,3.9,9.2,6.6c-5.4,4.2-9.4,9.9-14.2,14.6c-5.3,5.4-10.3,11.1-15.5,16.6c-6.1,6.3-11.7,13.1-17.9,19.2
		c-0.5,0.5-1.1,1.1-1.6,1.6c-0.7,0.7-1.6,1.3-1.3,2.4c0.4,1.1,1.6,0.8,2.6,0.8c7.4,0,15,0,22.4,0c10.4,0,20.8,0,31.2,0
		c1.3,0,3.1-0.7,3.9,1.3c-24.4,0-48.8,0-73.3-0.1c-23.9-0.1-47.8-0.3-71.7-0.4c-0.8,0-1.5-0.1-2.3-0.1c0-3.6,2.6-5.8,4.7-8
		c6.5-6.1,12.1-13,18.4-19.2c4.7-4.7,9.2-9.7,13.8-14.6c7-7.4,14.2-14.7,20.9-22.3c3.4-3.8,6.9-7.2,10.3-10.8
		C608.1,269.6,613.4,263.2,619.7,257.6z"/>
	<path id="XMLID_628_" class="st10" d="M619.7,257.6c0,0.8-0.5,1.3-1.1,1.9c-7.8,8.2-15.7,16.5-23.5,24.7c-7.4,8-14.3,16.2-22,23.7
		c-4.7,4.6-8.4,10.1-13.8,14.2c-2.6,1.9-3.9,5.3-6.3,7.3c-5.3,4.2-8.5,10.4-14,14.3c-2.2,1.6-3.6,4.2-4.7,6.7
		c-7.8,0-15.7,0.1-23.3,0.1c-31.2,0-62.3,0-93.5,0c-1.2,0-2.4,0-3.5-0.1c8.8-4.2,17.8-7.3,26.7-10.9c5.7-2.4,11.6-4.6,16.9-7.8
		c8.5-3.6,16.6-8,25.2-11.3c6.6-2.6,12.7-6.2,19.2-8.9c11.2-4.6,22-10.3,32.9-15.5c11.7-5.7,23.3-11.6,34.8-17.5
		c7.8-4,15.4-8.8,23.6-12.1c4.5-1.9,8.5-4.9,12.8-7.2c3.1-1.6,6.2-3.6,9.7-4.3C617.1,255.9,618.4,256.8,619.7,257.6z"/>
	<path id="XMLID_627_" class="st12" d="M615.7,255.1c-8.4,4.3-16.2,9.4-24.8,13.2c-4.6,1.9-8.5,5.1-13,7.3
		c-8.1,3.9-16.1,8.5-24.2,12.4c-11.9,5.7-23.6,11.5-35.5,17.1c-11.2,5.3-22.4,10.5-33.7,15.7c-7.7,3.5-15.2,6.9-22.9,10.4
		c-1.2,0.5-2.7,1.1-4,0.8c-0.1-1.5,0.7-2.7,1.5-3.8c4.9-6.3,10.7-11.9,16.2-17.5c4.3-4.6,8.8-9.2,13-13.9
		c5.4-5.8,11.1-11.3,16.3-17.4c4-4.7,8.4-9.6,13.1-13.8c2.2-1.9,3.8-4.2,5.7-6.2c8.2-8.8,16.7-17.4,24.8-26.3
		c3.9-4.5,8.5-8.2,12-13.1c0.8-1.2,2.2-1.9,3.6-2c3.1,1.5,5.3,4,8,5.9c8.9,6.2,17.8,12.3,26.6,18.6
		C604.3,246.4,610.5,250.1,615.7,255.1z"/>
	<path id="XMLID_626_" class="st13" d="M681.6,351.3c-1.1-0.9-2.6-0.5-3.8-0.5c-18.1,0-36.2,0-54.4,0c-1.2,0-3,0.8-3.5-0.8
		c-0.5-1.2,0.7-2.4,1.6-3.4c5.1-5.1,9.9-10.7,14.7-15.9c6.6-7,13.1-14.3,20-21c4.5-4.5,7.8-10.1,13.2-13.6c0.8-0.5,1.5-1.3,2.6-1.3
		c2.7,2.6,5.5,4.7,9.2,6.2c2.3,0.9,4,3.1,6.2,4.6c6.7,4.9,14,9.3,20.4,14.7c2,1.8,4.9,2.3,6.6,4.5c-0.1,0.4-0.3,0.8-0.5,1.1
		c-5.8,5.1-10.3,11.6-16.2,16.7c-3,2.6-4.7,6.1-7.6,8.9C687.3,351.3,684.4,351.3,681.6,351.3z"/>
	<path id="XMLID_625_" class="st14" d="M227.5,844.5c0,4.6,0,9.2,0,13.6c0.8,1.5-0.1,3.1,0.5,4.6c0.3,20.5,0.7,40.9,0.9,61.4
		c0,0.7,0.3,1.6-0.8,1.9c-0.9-3.5-2.7-6.7-3.9-10.3c-4.2-11.2-8.8-22.3-13-33.5c-1.9-4.9-4.2-9.7-5.4-14.8c-0.5-1.2,0-2,0.8-2.8
		c5.5-6.2,11.3-12,16.9-18.2C224.7,845.3,225.8,843.9,227.5,844.5z"/>
	<path id="XMLID_624_" class="st15" d="M690.1,351.3c1.2-3.8,4.3-6.5,6.7-9.3c3-3.2,6.3-6.1,9-9.6c2.3-3,5.7-5.3,8.5-7.8
		c12,9,25,16.9,37.1,26.7C730.6,351.3,710.3,351.3,690.1,351.3z"/>
	<path id="XMLID_623_" class="st16" d="M228.1,862.7c-1.1-1.3-0.3-3-0.5-4.6c0.1,0,0.4,0,0.5,0C228.1,859.7,228.1,861.2,228.1,862.7
		z"/>
	<path id="XMLID_622_" class="st8" d="M164.7,352.6c-2.4-0.4-4.3,0.8-5.5,2.6c-4.9,6.5-10.9,11.9-16.3,17.9
		c-6.1,6.9-12.3,13.6-18.8,20c-5,4.9-8.8,10.9-14.6,15c-2.7,1.9-3.5,5.4-6.1,7.2c-5.3,3.6-7.8,9.9-13.1,13.4
		c-0.5,0.3-0.8,0.8-0.7,1.3c0.1,0.8,0.8,0.8,1.5,0.9c0.9,0,1.9,0,3,0c-0.4,1.8-1.9,1.3-3.1,1.6c-3.6,0.5-7.3,0.5-10.8,1.1
		c-8.5,0.5-17,1.9-25.6,1.6c-2.7,0-5.4-0.4-8,0.3c-1.5,0.3-3.1,0.3-4.6,0.3c-1.3-0.1-2.7,0.1-3.9-0.9c-1.1-1.8-1.9-3.5-2.2-5.5
		c-0.5-1.5,0.3-2.4,1.2-3.5c4.7-5.5,9.9-10.7,14.8-15.9c9.4-9.7,18.6-19.7,27.9-29.6c9.7-10.3,19.4-20.4,28.9-30.9
		c0.7-0.8,1.3-1.3,2.2-1.9c3.1,0.3,6.1,0.5,9.2,0.8c1.3,0.5,2.7-0.1,4,0.5c8.8,0.8,17.7,1.5,26.4,2.3
		C155.3,351.5,160.1,351.5,164.7,352.6z"/>
	<path id="XMLID_621_" class="st17" d="M111,347.5c-2.2,3.9-5.7,6.7-8.6,10.1c-5.7,6.5-11.9,12.3-17.7,18.5
		c-10.7,11.6-21.5,23.1-32.5,34.4c-5.1,5.3-10,10.8-15,16.2c-0.7,0.7-1.2,1.5-1.3,2.6c-2.4-3.9-3.4-8.2-5-12.4
		c-2.8-7.4-6.5-14.6-8.9-22.1c-1.5-4.7-3.6-9.2-5-13.9c3.8-5.8,9.2-10,13.6-15.1c6.3-7.3,13.2-14.2,19.8-21.3
		c0.5-0.5,1.1-1.1,1.1-1.9c9.7-0.5,19.3,1.3,29,2c9.3,0.7,18.8,1.8,28.1,2.7C109.5,347.1,110.3,347.4,111,347.5z"/>
	<path id="XMLID_620_" class="st17" d="M124.2,348.7c-1.3-0.1-2.8,0.5-4-0.5C121.5,348.2,122.8,348,124.2,348.7z"/>
	<path id="XMLID_619_" class="st16" d="M227.5,844.5c-1.1,0.5-2.2,1.1-3,2c-5.9,6.3-11.9,12.8-17.8,19.2c-0.4,0.4-0.5,1.2-0.8,1.8
		c-3-5.5-4.7-11.6-6.9-17.4c-2.7-7.2-6.2-14-8.6-21.3c-3.9-12.3-9.9-23.9-13.8-36.3c-1.6-5.1-4.2-10-6.2-15
		c-1.3-3.6-2.4-7.3-3.6-10.9c1.9-3.4,4.6-5.9,7.2-8.8c5.9-6.5,12-13.1,18.2-19.3c5.3-5.3,9.4-11.5,15.5-16.1
		c2.4-1.9,3.5-5.1,6.1-7.2c4-3.1,6.5-7.8,10.4-11.1c0.8-0.7,1.3-2,2.6-1.6c1.3,0.4,0.8,1.9,0.8,2.8
		C227.5,751.9,227.5,798.2,227.5,844.5z"/>
	<path id="XMLID_618_" class="st18" d="M80.3,432.8c3.4-1.1,6.9-0.7,10.4-1.3c1.1-0.1,2.4,0.4,3.4-0.7c8.8-0.3,17.5-1.9,26.3-2.8
		c6.9-0.7,13.9-1.2,20.8-2.4c3.4-0.5,6.7-1.5,10.3-1.3c1.3,0.7,2.6,1.5,3.9,0.8c0.8,0.9,0,1.3-0.4,1.8c-4,4.3-8.2,8.6-12.3,13
		c-8.2,8.9-16.5,17.8-24.7,26.6c-5.3,5.5-10.7,11.1-15.9,16.6c-5,5.3-9.4,11.1-14.7,15.8c-5,4.5-8.1,10.4-13.8,14.2
		c-1.6,1.1-2.4,3.2-3.1,5.3c-3-6.3-5.4-12.8-7.8-19.4c-2.7-7.8-6.2-15.4-9.3-23.2c-0.9-2.4-1.6-5.1-2.4-7.7c-0.4-3.1,1.6-5,3.5-6.7
		c7.2-6.6,13.6-13.8,19.8-21.2c1.1-1.3,2.7-2.2,3.9-3.4C79.5,435.6,80.7,434.5,80.3,432.8z"/>
	<path id="XMLID_617_" class="st19" d="M80.3,432.8c1.8,0.3,1.6,1.5,0.5,2.3c-5.7,4.3-8.9,10.7-14.7,14.8c-1.3,0.9-2.3,2.3-3.1,3.6
		c-1.6,2.6-3.6,4.6-5.9,6.3c-3,2.2-4.9,4.7-6.2,8.1c-3.2-8-7.2-15.7-9.4-23.9c-0.8-3-2.3-5.8-3.5-8.6c1.2-0.7,2.6,0.3,3.8-0.7
		c1.5,0,3.1,0,4.6,0c2.6-0.8,5.3,0.3,7.8-0.7C63.1,434.7,71.7,432.8,80.3,432.8z"/>
	<path id="XMLID_616_" class="st17" d="M42,434.8c-1.1,1.1-2.4,0.4-3.8,0.7c-0.1-0.1-0.1-0.4-0.1-0.7
		C39.4,434.8,40.7,434.8,42,434.8z"/>
	<g id="XMLID_385_">
		<path id="XMLID_559_" class="st20" d="M849.3,706.3c-0.8,0-1.8-0.4-2.2,0.7c0,11.1,0,22.1,0,33.2c0,12.5,0,25.2,0,37.8
			c0,16.5,0,33.1,0,49.5c0,9.7,0,19.6,0,29.3c0,9.4,0,18.9-0.1,28.2c0,2.3,1.1,2.3,2.8,2.3c10.1,0,20.4-0.1,30.5,0
			c2.4,0,3.1-0.7,3.1-3.1c-0.1-19.8,0-39.7,0-59.5c0-1.3,0.1-2.6,0.1-3.9c15.1,0,30.1,0,45.2,0c2.3,0,2.8-0.7,2.8-2.8
			c-0.1-9.6,0-19,0-28.6c0-4.2,0-4.2-4.2-4.2c-13.8,0-27.5,0-41.3,0c-1.3,0-2.8,0.5-2.8-1.9c0.1-13.5,0.1-27.1,0.3-40.6
			c25.1,0,50.3,0,75.4-0.1c0.3,0,0.4,0,0.7,0.1c0-12.1,0-24.3,0-36.4C923,706.3,886.2,706.3,849.3,706.3z"/>
		<path id="XMLID_558_" class="st20" d="M449.8,494.8c-36,0.1-72.1,0.1-108.1,0c-2,0-2.7,0.5-2.7,2.7c0.1,10.3,0.1,20.6,0,30.9
			c0,2,0.5,2.7,2.7,2.7c11.7-0.1,23.5,0,35.2,0c0,1.2,0.1,2.4,0.1,3.5c0,45.5,0,91.1,0,136.6c0,0.8,0,1.5,0,2.3c-0.1,1.5,0.4,2,2,2
			c10.7,0,21.3,0,31.8,0c1.5,0,2.2-0.4,2.2-2c-0.1-10.7-0.1-21.2-0.1-31.8c0-18.5,0.1-37,0.1-55.5c0-5.7-0.1-11.2-0.1-16.9
			c0-11.9,0.1-23.6,0.1-35.5c0-2.4,0.7-3.1,3.1-3c11.3,0.1,22.5,0,33.9,0.1c2.2,0,3-0.3,3-2.7c-0.1-10.3-0.1-20.4,0-30.6
			C452.6,495.7,452.1,494.8,449.8,494.8z"/>
		<path id="XMLID_557_" class="st20" d="M813,706.4c-34.9,0.1-69.8,0-104.7,0c-0.5,0-1.1,0-1.6,0c-1.3-0.1-1.9,0.4-1.9,1.9
			c0.1,11.5,0.1,22.9,0.3,34.4c-0.3,12.5-0.3,25.2,0,37.8c-0.3,9.6-0.3,19.2,0,28.6c-0.3,10.3-0.3,20.4,0,30.6
			c-0.3,9.3-0.3,18.6,0,28.1c0,5.8-0.1,11.7-0.1,17.5c0,1.6,0.7,1.9,2.2,1.9c10.4,0,20.8,0,31.2,0c1.5,0,2.2-0.3,2.2-1.9
			c-0.1-6.1-0.1-12.1-0.1-18.2c0-9.3,0-18.6,0-28.1c0-5,0.3-10,0.1-15c-0.1-2.8,0.8-3.4,3.4-3.4c14.2,0.1,28.3,0,42.6,0.1
			c2.4,0,3.1-0.7,3-3.1c-0.3-3.5-0.1-7.2-0.3-10.7c0-6.3,0-12.8,0.1-19.2c0.1-2.3-0.7-2.8-3-2.8c-13.2,0.1-26.4,0-39.5,0
			c-6.2,0-6.2,0-6.6-6.1c0-11.1,0.1-22.1,0.1-33.2c0-2.8,0.8-3.4,3.4-3.4c23.3,0.1,46.7,0,70,0.1c2.8,0,3.5-0.9,2.8-3.4
			c0-9.9,0-19.7,0.3-29.6C816.8,707.1,815.9,706.4,813,706.4z"/>
		<path id="XMLID_392_" class="st20" d="M630.3,577.4c0,0.3-0.1,0.7-0.1,0.9c0,31.6,0,63.1,0,94.6c0,3,1.3,2.7,3.4,2.7
			c33.9,0,67.9,0,101.7,0c0.9,0,2.2,0.7,2.8-0.5c0-10.7,0-21.3,0.3-31.8c0-2.8-0.8-3.4-3.4-3.4c-22,0.1-44.1,0-66.1,0.1
			c-2.4,0-3-0.7-3-3.1c0.1-8.9,0.1-17.8,0-26.7c0-2.4,0.5-3.1,3-3c15.2,0.1,30.4,0,45.6,0.1c3,0,3.5-0.8,3.5-3.6
			c-0.1-9.7-0.1-19.6,0-29.3c0-2.7-0.4-3.6-3.5-3.6c-16.2,0.1-32.4,0-48.6,0c0-13.2,0-26.4,0-39.7c0.1,0,0.4,0,0.5-0.1
			c23.2,0,46.4,0,69.6,0.1c1.9,0,2-0.8,2-2.3c0-10.4-0.1-20.8,0-31.3c0-2.2-0.5-2.7-2.7-2.7c-12,0-24,0-36,0l0,0
			c-22.1,0-44.3,0-66.5,0c-2.6,0-3.1,0.8-3,3.1c0.1,5.1,0,10.3,0,15.2C630.2,534.6,630.2,556,630.3,577.4z M630.9,623.6
			C630.9,623.7,630.9,623.7,630.9,623.6L630.9,623.6L630.9,623.6z M630.9,576.6C630.9,576.7,630.9,576.7,630.9,576.6L630.9,576.6
			L630.9,576.6z M701.6,495.4c-0.1,0.1-0.4,0.4-0.5,0.5c0-0.1,0-0.3,0-0.4c0,0,0,0-0.1-0.1C701.2,495.4,701.3,495.4,701.6,495.4z"/>
		<path id="XMLID_391_" class="st20" d="M485,604.7c0,22.7,0,45.3,0,68c0,1.8-0.1,3.1,2.4,3c10.7-0.1,21.3-0.1,31.8,0
			c1.5,0,2.2-0.3,2-1.9c-0.1-11.5-0.1-22.9-0.1-34.5c0-9.7,0.1-19.6,0-29.3c0-2,0.4-2.7,2.7-2.7c11.3,0.1,22.5,0.1,33.9,0.1
			c0,1.3,0.1,2.6,0.1,3.9c0,20.5,0,41,0,61.5c0,2.2,0.4,3,2.8,3c10.3-0.1,20.4-0.1,30.6-0.1c1.8,0,2.4-0.3,2.4-2.3
			c-0.1-10.9-0.1-21.9-0.1-32.9c0-25,0-49.9,0-74.9c0-22.8,0-45.7,0.1-68.5c0-2-0.9-2.2-2.6-2.2c-10,0-20,0-30,0
			c-0.9,0-1.9-0.3-2.8,0.4l0.1,0.1l0,0l-0.1-0.1c-1.1,0.8-0.5,2-0.5,3c0,6.9,0,13.9,0,20.8c0,16.3,0,32.8,0,49.1
			c0,0.5,0.1,1.3,0.1,1.9c0,0,0,0.1-0.1,0.1c-0.1,0.3-0.1,0.4-0.4,0.5l0,0c-0.3,0.1-0.7,0.3-1.3,0.3c-11.6-0.1-23.2-0.1-34.8-0.1
			c0-24.4,0-48.7,0-73.1c0-2.3-0.5-3-2.8-2.8c-7.8,0.1-15.7,0-23.3,0.1c-3.2,0-6.5-0.5-9.6,0.4c-1.1,0.9-0.5,2.2-0.5,3.4
			C485,534,485,569.3,485,604.7z"/>
		<path id="XMLID_390_" class="st20" d="M449.1,838c0-1.8-0.5-2.2-2.2-2.2c-4,0.1-8.2,0-12.3,0c-7.2,0.1-14.3-0.4-21.3,0.3
			c-0.9,4.3-0.1,8.8-0.4,13.2c0,0.7,0,1.2-0.3,1.6c0,0,0,0.1-0.1,0.1c-0.3,0.4-0.7,0.7-1.6,0.7c-11.3-0.1-22.7-0.1-34.1-0.3
			c0-1.1-0.1-2.2-0.1-3.1c0-7.2,0-14.3,0-21.5c0-12.5,0-25.2,0-37.8c0-12.8,0-25.6,0-38.5c0-1.9,0.3-3.6,0.1-5.5
			c-0.1-1.9,0.5-2.3,2.4-2.3c10.5,0.1,21,0.1,31.6,0c1.8,0,2.2,0.5,2.2,2.2c-0.1,3.6,0.1,7.4-0.1,11.1c-0.1,2,0.5,2.6,2.6,2.6
			c10.4-0.1,20.8-0.1,31.2,0c2.3,0,2.6-0.8,2.6-2.7c-0.1-10.4,0-20.8,0-31.2c0-1.3,0.3-2.8-0.7-4c-2.7-8.4-8.4-14-17.7-14
			c-23.9,0-47.9-0.1-71.8,0c-10.4,0.1-17.9,7.6-18.2,17.1c-0.1,0.5-0.3,1.1-0.3,1.6c0,47.9,0,95.9,0,143.8c0,9.3,7.6,18.2,18.4,18.2
			c24,0,47.9,0.1,71.9-0.1c9-0.1,13.9-3.5,17.1-12c2.2-5.7,0.8-11.7,0.9-17.7C449,850.9,449,844.5,449.1,838z"/>
		<path id="XMLID_387_" class="st20" d="M597.7,852.1c-1.1-0.9-2.3-0.4-3.4-0.4c-24.3-0.1-48.6-0.1-72.9-0.1
			c0-7.8-0.1-15.5-0.1-23.3c0-11.3,0-22.5,0-33.9c0-12.4,0-24.7,0-37.1c0-7.6,0-15.2,0-22.8c0-9.2,0-18.2,0-27.4
			c-0.8-1.2-1.9-0.5-3-0.5c-9.9,0-19.7,0.1-29.7-0.1c-2.8,0-3.9,0.5-3.8,3.6c0.1,23.9,0.1,47.8,0.1,71.6c0,34.1,0,68.1,0,102.3
			c0,2.6,0.4,3.5,3.2,3.5c35.6-0.1,71.2-0.1,106.9,0c2.6,0,3.1-0.8,3-3.1c-0.1-9.9,0-19.7,0-29.7C597.9,853.8,598.2,853,597.7,852.1
			z M547.3,878.3C547.3,878.3,547.5,878.3,547.3,878.3C547.5,878.3,547.5,878.3,547.3,878.3C547.3,878.3,547.5,878.3,547.3,878.3z"
			/>
		<path id="XMLID_386_" class="st20" d="M663,706.4c-9.7,0.1-19.6,0.1-29.3,0c-2.8,0-3.6,0.7-3.6,3.5c0.1,29,0.1,57.9,0.1,86.9l0,0
			c0,29.1,0,58.2,0,87.3c0,2.4,0.4,3.4,3.1,3.4c10-0.1,20-0.1,30,0c2.2,0,2.7-0.5,2.7-2.7c0-58.4,0-117,0-175.4
			C665.9,706.8,665.1,706.4,663,706.4z"/>
	</g>
	<path id="XMLID_384_" class="st17" d="M54.3,434.1c-2.6,1.3-5.3,0.4-7.8,0.7C49,433.4,51.7,434.4,54.3,434.1z"/>
</g>
</svg>
